<svg xmlns="http://www.w3.org/2000/svg" viewBox="0 0 536.11 536.11"><path fill="#30333D" d="M267.75 0c37.128 0 71.91 7.038 104.345 21.114 32.44 14.076 60.793 33.252 85.068 57.528 24.277 24.276 43.453 52.632 57.53 85.068 14.07 32.436 21.11 67.218 21.11 104.346 0 37.127-7.04 71.91-21.11 104.346-14.077 32.438-33.253 60.79-57.53 85.068-24.275 24.275-52.63 43.45-85.068 57.527-32.436 14.076-67.217 21.113-104.345 21.113s-71.91-7.037-104.346-21.11c-32.436-14.077-60.792-33.253-85.068-57.528-24.276-24.277-43.35-52.633-57.222-85.068C7.242 339.967.306 305.184.306 268.056s6.936-71.91 20.808-104.346 32.946-60.792 57.222-85.068 52.632-43.452 85.068-57.528S230.622 0 267.75 0zm0 29.376c-33.048 0-64.056 6.222-93.024 18.666S120.462 77.52 98.838 99.144s-38.658 46.92-51.102 75.888-18.666 59.976-18.666 93.024c0 33.047 6.222 64.055 18.666 93.024 12.444 28.97 29.478 54.264 51.102 75.89 21.624 21.622 46.92 38.657 75.888 51.1 28.968 12.444 59.976 18.667 93.024 18.667s64.056-6.223 93.025-18.666c28.967-12.44 54.264-29.478 75.887-51.1 21.625-21.626 38.658-46.92 51.102-75.89 12.445-28.97 18.666-59.98 18.666-93.024 0-33.046-6.22-64.056-18.666-93.024-12.44-28.968-29.477-54.264-51.102-75.888-21.623-21.624-46.92-38.658-75.887-51.102-28.97-12.444-59.977-18.666-93.025-18.666zm68.544 282.745c25.703-8.978 38.555-25.907 38.555-50.796 0-13.056-2.142-23.358-6.427-30.906-4.283-7.548-11.117-13.77-20.502-18.666-4.487-2.448-9.79-3.876-15.91-4.284-6.12-.408-12.646-.51-19.585-.306-6.936.204-14.277.612-22.03 1.224-7.753.612-15.505.918-23.255.918-7.752 0-15.504-.306-23.256-.918s-15.096-1.02-22.032-1.224-13.464-.102-19.584.306-11.424 1.836-15.912 4.284c-9.384 4.896-16.116 11.118-20.196 18.666s-6.12 17.85-6.12 30.906c0 24.89 12.852 41.82 38.556 50.797 4.488 1.224 9.384 2.446 14.688 3.673 4.488.813 10.098 1.63 16.83 2.445 6.732.816 14.586 1.227 23.562 1.227h26.927c8.568 0 16.32-.408 23.26-1.227 6.936-.814 12.852-1.633 17.748-2.445 5.708-1.225 10.604-2.45 14.684-3.672zm73.44-88.74c0 13.056-1.43 25.398-4.283 37.026-2.856 11.625-8.16 22.135-15.91 31.518-7.753 9.385-18.464 17.137-32.132 23.256-13.668 6.12-31.11 9.996-52.326 11.63 3.264 1.63 7.447 3.67 12.547 6.118 5.1 2.45 9.485 7.14 13.157 14.076 2.04 4.486 3.365 11.016 3.977 19.584.613 8.566.918 17.34.918 26.314 0 8.98-.102 17.238-.305 24.785-.205 7.55.102 12.14.918 13.77 1.63 3.265 3.98 6.12 7.037 8.567 3.06 2.447 5.61 4.283 7.65 5.508 2.04 1.227 2.65 2.756 1.836 4.592-.816 1.836-3.672 2.96-8.568 3.363-2.447 0-5.508-.404-9.18-1.223-3.672-.816-7.143-2.244-10.404-4.285-3.262-2.04-6.018-4.59-8.262-7.647-2.244-3.063-3.365-7.04-3.365-11.938V378.21c0-5.71-1.327-9.79-3.98-12.24-2.65-2.446-5.403-4.08-8.263-4.894v66.096c0 11.832 1.428 19.584 4.285 23.256 1.223 1.633 2.346 3.367 3.365 5.203s1.633 3.366 1.836 4.59c.205 1.224-.51 1.94-2.145 2.144-1.63.203-4.69-.307-9.18-1.53-8.568-2.038-14.688-6.73-18.36-14.075s-5.507-15.097-5.507-23.257v-64.87h-13.46v64.87c0 8.16-1.734 15.912-5.202 23.256s-9.69 12.036-18.666 14.075c-4.488 1.225-7.446 1.732-8.874 1.53-1.428-.204-2.142-.92-2.142-2.144 0-1.224.612-2.753 1.836-4.59s2.448-3.57 3.672-5.202c.816-1.63 1.734-4.488 2.754-8.568 1.02-4.078 1.53-8.975 1.53-14.688v-66.096c-2.856.814-5.508 2.445-7.956 4.896-2.448 2.447-3.672 6.527-3.672 12.24v50.184c0 4.896-1.122 8.873-3.366 11.936-2.244 3.06-4.998 5.607-8.262 7.648-3.264 2.04-6.732 3.47-10.404 4.283-3.672.816-6.732 1.225-9.18 1.225-4.896-.406-7.752-1.527-8.568-3.363s-.204-3.367 1.836-4.59c2.04-1.227 4.59-3.063 7.65-5.512 3.06-2.445 5.406-5.303 7.038-8.564.816-2.042 1.122-7.448.918-16.222-.204-8.77-.306-18.463-.306-29.068-3.264 1.225-7.548 2.04-12.852 2.45-5.304.403-11.22 0-17.748-1.228-11.016-2.04-19.38-5.607-25.092-10.71-5.712-5.1-11.22-13.16-16.524-24.175-2.856-5.303-6.018-9.69-9.486-13.158-3.468-3.468-6.528-6.222-9.18-8.263-2.652-2.04-4.692-3.773-6.12-5.2-1.428-1.43-1.53-2.755-.306-3.98 2.448-2.855 5.814-4.08 10.098-3.674 4.284.408 6.834 1.02 7.65 1.836 4.896 2.038 9.792 6.323 14.688 12.853 4.896 6.53 9.996 12.037 15.3 16.523 2.448 2.04 5.508 4.078 9.18 6.12 3.672 2.038 7.752 3.47 12.24 4.282 4.488.816 9.384.816 14.688 0 5.304-.813 10.608-3.06 15.912-6.73 1.224-5.306 3.162-9.485 5.814-12.548 2.652-3.06 5.508-5.508 8.568-7.344 3.06-1.836 5.916-3.264 8.568-4.285 2.652-1.02 4.794-1.937 6.426-2.753-22.44-1.63-40.8-5.402-55.08-11.318s-25.602-13.468-33.966-22.647c-8.364-9.18-14.076-19.686-17.136-31.52-3.06-11.83-4.59-24.275-4.59-37.33 0-13.465 2.04-25.5 6.12-36.11s9.792-19.99 17.136-28.15c-3.264-9.793-4.386-20.095-3.366-30.907s3.162-20.502 6.426-29.07c15.504.816 28.458 4.08 38.862 9.792 10.404 5.712 17.646 10.404 21.726 14.076 17.544-4.896 35.7-7.344 54.468-7.344h4.284c17.543 0 34.48 2.04 50.795 6.12 4.487-3.672 11.83-8.16 22.032-13.464 10.2-5.304 22.85-8.364 37.943-9.18 3.264 8.16 5.406 17.34 6.426 27.54 1.022 10.2.308 19.992-2.14 29.376 8.16 8.16 14.48 17.85 18.97 29.07 4.49 11.228 6.734 23.978 6.734 38.258zm-143.208-14.076h1.224-1.224zm78.948 47.736c0 5.712-1.527 10.608-4.59 14.688-3.06 4.08-6.834 6.12-11.322 6.12-4.486 0-8.158-2.04-11.016-6.12-2.854-4.08-4.285-8.977-4.285-14.688s1.433-10.608 4.286-14.688c2.855-4.08 6.527-6.12 11.016-6.12s8.264 2.04 11.322 6.12c3.06 4.08 4.59 8.976 4.59 14.688zm-119.952 0c0 5.712-1.53 10.608-4.59 14.688s-6.834 6.12-11.322 6.12-8.16-2.04-11.016-6.12-4.284-8.977-4.284-14.688 1.428-10.608 4.284-14.688 6.528-6.12 11.016-6.12 8.262 2.04 11.322 6.12c3.06 4.08 4.59 8.976 4.59 14.688z"/></svg>