<svg xmlns="http://www.w3.org/2000/svg" width="568.034" height="568.034" viewBox="0 0 568.034 568.034"><path d="M550.99 0H17.05C8.95 0 2.38 6.567 2.38 14.67v538.694c0 8.104 6.568 14.67 14.67 14.67h177.5v-.13c8.01-.09 14.148-4.576 14.43-12.165.728-19.726.214-39.493.214-58.563-14.296.667-27.944 2.473-41.438 1.695-29.762-1.714-52.632-14.413-64.493-43.556-7.026-17.265-17.613-32.032-34.1-41.886-3.08-1.842-5.772-4.554-8.128-7.308-3.08-3.592-2.503-7.282 2.362-8.268 4.908-.998 10.27-1.695 15.11-.79 19.01 3.568 32.154 15.49 42.216 31.347 19.896 31.372 50.52 40.975 84.976 26.488 1.92-.808 4.362-2.766 4.724-4.553 2.778-13.887 7.968-26.55 18.427-37.65-11.627-2.154-22.398-3.74-32.96-6.188-30.418-7.038-57.743-19.7-77.725-44.848-16.303-20.515-23.758-44.53-27.185-70.087-5.367-40.03-.563-77.503 26.928-109.493 1.39-1.616 2.142-4.927 1.524-6.94-6.885-22.497-5.833-44.805.99-67.05 3.582-11.684 4.58-12.266 16.5-10.638.73.098 1.44.28 2.162.404 23.898 3.954 44.468 15.526 64.73 27.95 2.725 1.67 6.874 2.71 9.867 1.983 48.398-11.745 96.703-11.696 145.094.042 2.81.68 6.56-.288 9.247-1.695 11.017-5.76 21.562-12.454 32.72-17.914 12.98-6.346 26.65-11.12 41.37-10.857 2.576.05 6.56 2.51 7.423 4.786 8.856 23.464 10.723 47.375 3.666 71.794-.754 2.607.366 6.322 1.768 8.892 6.965 12.78 16.69 24.572 21.096 38.127 13.434 41.316 8.538 82.23-9.75 121.06-16.756 35.594-47.833 53.63-84.62 62.933-12.424 3.14-25.153 5.05-38.556 7.68 17.564 18.35 20.318 40.74 20.006 64.193-.324 24.193-.238 48.392-.25 72.59-.007 11.72 5.11 18.195 14.038 18.574-.006.037 188.723.037 188.723.037V14.67C565.653 6.567 559.087 0 550.99 0z"/></svg>
