<svg xmlns="http://www.w3.org/2000/svg" viewBox="0 0 18 18"><path
		fill="#30333D" d="M7.033 12.3h-1.6V7.1h1.6v5.2zm-.8-5.866c-.577 0-.866-.267-.866-.8 0-.223.082-.412.25-.567.166-.155.37-.233.616-.233.577 0 .866.268.866.8s-.29.8-.867.8zm6.734 5.866h-1.633V9.4c0-.755-.268-1.133-.8-1.133-.423 0-.7.21-.835.633-.044.067-.067.2-.067.4v3H8V8.767c0-.8-.012-1.355-.033-1.666h1.4l.1.7c.367-.556.9-.833 1.633-.833.557 0 1.006.194 1.35.583.346.39.518.95.518 1.684V12.3z"/><path d="M9 18c-4.963 0-9-4.037-9-9s4.037-9 9-9 9 4.037 9 9-4.037 9-9 9zM9 2C5.14 2 2 5.14 2 9s3.14 7 7 7 7-3.14 7-7-3.14-7-7-7z" fill="#030104"/></svg>